<?xml version="1.0" encoding="UTF-8"?>
<svg viewBox="0 0 400 400" xmlns="http://www.w3.org/2000/svg" width="400" height="400">
<defs><path id="bp" d="M 16,200 A 184,184 0 0,1 384,200"/></defs>
<circle cx="200" cy="200" r="198" fill="#090c12"/>
<circle cx="200" cy="200" r="191" fill="none" stroke="#2196F3" stroke-width="1.2" stroke-opacity=".35"/>
<circle cx="200" cy="200" r="183" fill="none" stroke="#2196F3" stroke-width=".4" stroke-opacity=".1"/>
<line x1="200.0" y1="24.0" x2="200.0" y2="9.0" stroke="#2196F3" stroke-width="1.5" stroke-opacity=".55"/>
<line x1="232.1" y1="17.8" x2="233.2" y2="11.9" stroke="#2196F3" stroke-width=".55" stroke-opacity=".18"/>
<line x1="263.3" y1="26.2" x2="265.3" y2="20.5" stroke="#2196F3" stroke-width=".55" stroke-opacity=".18"/>
<line x1="288.0" y1="47.6" x2="295.5" y2="34.6" stroke="#2196F3" stroke-width="1.5" stroke-opacity=".55"/>
<line x1="318.9" y1="58.3" x2="322.8" y2="53.7" stroke="#2196F3" stroke-width=".55" stroke-opacity=".18"/>
<line x1="341.7" y1="81.1" x2="346.3" y2="77.2" stroke="#2196F3" stroke-width=".55" stroke-opacity=".18"/>
<line x1="352.4" y1="112.0" x2="365.4" y2="104.5" stroke="#2196F3" stroke-width="1.5" stroke-opacity=".55"/>
<line x1="373.8" y1="136.7" x2="379.5" y2="134.7" stroke="#2196F3" stroke-width=".55" stroke-opacity=".18"/>
<line x1="382.2" y1="167.9" x2="388.1" y2="166.8" stroke="#2196F3" stroke-width=".55" stroke-opacity=".18"/>
<line x1="376.0" y1="200.0" x2="391.0" y2="200.0" stroke="#2196F3" stroke-width="1.5" stroke-opacity=".55"/>
<line x1="382.2" y1="232.1" x2="388.1" y2="233.2" stroke="#2196F3" stroke-width=".55" stroke-opacity=".18"/>
<line x1="373.8" y1="263.3" x2="379.5" y2="265.3" stroke="#2196F3" stroke-width=".55" stroke-opacity=".18"/>
<line x1="352.4" y1="288.0" x2="365.4" y2="295.5" stroke="#2196F3" stroke-width="1.5" stroke-opacity=".55"/>
<line x1="341.7" y1="318.9" x2="346.3" y2="322.8" stroke="#2196F3" stroke-width=".55" stroke-opacity=".18"/>
<line x1="318.9" y1="341.7" x2="322.8" y2="346.3" stroke="#2196F3" stroke-width=".55" stroke-opacity=".18"/>
<line x1="288.0" y1="352.4" x2="295.5" y2="365.4" stroke="#2196F3" stroke-width="1.5" stroke-opacity=".55"/>
<line x1="263.3" y1="373.8" x2="265.3" y2="379.5" stroke="#2196F3" stroke-width=".55" stroke-opacity=".18"/>
<line x1="232.1" y1="382.2" x2="233.2" y2="388.1" stroke="#2196F3" stroke-width=".55" stroke-opacity=".18"/>
<line x1="200.0" y1="376.0" x2="200.0" y2="391.0" stroke="#2196F3" stroke-width="1.5" stroke-opacity=".55"/>
<line x1="167.9" y1="382.2" x2="166.8" y2="388.1" stroke="#2196F3" stroke-width=".55" stroke-opacity=".18"/>
<line x1="136.7" y1="373.8" x2="134.7" y2="379.5" stroke="#2196F3" stroke-width=".55" stroke-opacity=".18"/>
<line x1="112.0" y1="352.4" x2="104.5" y2="365.4" stroke="#2196F3" stroke-width="1.5" stroke-opacity=".55"/>
<line x1="81.1" y1="341.7" x2="77.2" y2="346.3" stroke="#2196F3" stroke-width=".55" stroke-opacity=".18"/>
<line x1="58.3" y1="318.9" x2="53.7" y2="322.8" stroke="#2196F3" stroke-width=".55" stroke-opacity=".18"/>
<line x1="47.6" y1="288.0" x2="34.6" y2="295.5" stroke="#2196F3" stroke-width="1.5" stroke-opacity=".55"/>
<line x1="26.2" y1="263.3" x2="20.5" y2="265.3" stroke="#2196F3" stroke-width=".55" stroke-opacity=".18"/>
<line x1="17.8" y1="232.1" x2="11.9" y2="233.2" stroke="#2196F3" stroke-width=".55" stroke-opacity=".18"/>
<line x1="24.0" y1="200.0" x2="9.0" y2="200.0" stroke="#2196F3" stroke-width="1.5" stroke-opacity=".55"/>
<line x1="17.8" y1="167.9" x2="11.9" y2="166.8" stroke="#2196F3" stroke-width=".55" stroke-opacity=".18"/>
<line x1="26.2" y1="136.7" x2="20.5" y2="134.7" stroke="#2196F3" stroke-width=".55" stroke-opacity=".18"/>
<line x1="47.6" y1="112.0" x2="34.6" y2="104.5" stroke="#2196F3" stroke-width="1.5" stroke-opacity=".55"/>
<line x1="58.3" y1="81.1" x2="53.7" y2="77.2" stroke="#2196F3" stroke-width=".55" stroke-opacity=".18"/>
<line x1="81.1" y1="58.3" x2="77.2" y2="53.7" stroke="#2196F3" stroke-width=".55" stroke-opacity=".18"/>
<line x1="112.0" y1="47.6" x2="104.5" y2="34.6" stroke="#2196F3" stroke-width="1.5" stroke-opacity=".55"/>
<line x1="136.7" y1="26.2" x2="134.7" y2="20.5" stroke="#2196F3" stroke-width=".55" stroke-opacity=".18"/>
<line x1="167.9" y1="17.8" x2="166.8" y2="11.9" stroke="#2196F3" stroke-width=".55" stroke-opacity=".18"/>
<polygon points="200.0,70.0 312.6,265.0 87.4,265.0" fill="none" stroke="#2196F3" stroke-width=".5" stroke-opacity=".17"/>
<polygon points="265.0,87.4 265.0,312.6 70.0,200.0" fill="none" stroke="#2196F3" stroke-width=".5" stroke-opacity=".17"/>
<polygon points="312.6,135.0 200.0,330.0 87.4,135.0" fill="none" stroke="#2196F3" stroke-width=".5" stroke-opacity=".17"/>
<polygon points="330.0,200.0 135.0,312.6 135.0,87.4" fill="none" stroke="#2196F3" stroke-width=".5" stroke-opacity=".17"/>
<line x1="200.0" y1="70.0" x2="200.0" y2="330.0" stroke="#2196F3" stroke-width=".4" stroke-opacity=".09"/>
<line x1="265.0" y1="87.4" x2="135.0" y2="312.6" stroke="#2196F3" stroke-width=".4" stroke-opacity=".09"/>
<line x1="312.6" y1="135.0" x2="87.4" y2="265.0" stroke="#2196F3" stroke-width=".4" stroke-opacity=".09"/>
<line x1="330.0" y1="200.0" x2="70.0" y2="200.0" stroke="#2196F3" stroke-width=".4" stroke-opacity=".09"/>
<line x1="312.6" y1="265.0" x2="87.4" y2="135.0" stroke="#2196F3" stroke-width=".4" stroke-opacity=".09"/>
<line x1="265.0" y1="312.6" x2="135.0" y2="87.4" stroke="#2196F3" stroke-width=".4" stroke-opacity=".09"/>
<polygon points="200.0,70.0 265.0,87.4 312.6,135.0 330.0,200.0 312.6,265.0 265.0,312.6 200.0,330.0 135.0,312.6 87.4,265.0 70.0,200.0 87.4,135.0 135.0,87.4" fill="none" stroke="#2196F3" stroke-width=".7" stroke-opacity=".25"/>
<circle cx="200" cy="200" r="82" fill="none" stroke="#2196F3" stroke-width=".6" stroke-dasharray="2 5" stroke-opacity=".18"/>
<polygon points="179,164 189,141 200,132 211,141 221,164" fill="rgba(245,158,11,.1)" stroke="#F59E0B" stroke-width="1.8" stroke-linejoin="round"/>
<line x1="174" y1="165" x2="226" y2="165" stroke="#F59E0B" stroke-width="2.5" stroke-linecap="round"/>
<circle cx="200" cy="155" r="16.5" fill="rgba(33,150,243,.1)" stroke="#2196F3" stroke-width="1.5"/>
<polygon points="183,176 217,176 212,220 188,220" fill="rgba(33,150,243,.1)" stroke="#2196F3" stroke-width="1.5" stroke-linejoin="round"/>
<polygon points="183,176 172,178 160,214 171,212" fill="rgba(33,150,243,.08)" stroke="#2196F3" stroke-width="1.5" stroke-linejoin="round"/>
<polygon points="217,176 228,178 240,214 229,212" fill="rgba(33,150,243,.08)" stroke="#2196F3" stroke-width="1.5" stroke-linejoin="round"/>
<polygon points="190,220 200,220 195,258 185,258" fill="rgba(33,150,243,.08)" stroke="#2196F3" stroke-width="1.5" stroke-linejoin="round"/>
<polygon points="200,220 210,220 215,258 205,258" fill="rgba(33,150,243,.08)" stroke="#2196F3" stroke-width="1.5" stroke-linejoin="round"/>
<line x1="200" y1="155" x2="200.0" y2="70.0" stroke="#F59E0B" stroke-width=".7" stroke-opacity=".22" stroke-dasharray="3 5"/>
<line x1="183" y1="176" x2="135.0" y2="87.4" stroke="#F59E0B" stroke-width=".7" stroke-opacity=".22" stroke-dasharray="3 5"/>
<line x1="217" y1="176" x2="265.0" y2="87.4" stroke="#F59E0B" stroke-width=".7" stroke-opacity=".22" stroke-dasharray="3 5"/>
<line x1="160" y1="214" x2="70.0" y2="200.0" stroke="#F59E0B" stroke-width=".7" stroke-opacity=".22" stroke-dasharray="3 5"/>
<line x1="240" y1="214" x2="330.0" y2="200.0" stroke="#F59E0B" stroke-width=".7" stroke-opacity=".22" stroke-dasharray="3 5"/>
<line x1="190" y1="220" x2="135.0" y2="312.6" stroke="#F59E0B" stroke-width=".7" stroke-opacity=".22" stroke-dasharray="3 5"/>
<line x1="210" y1="220" x2="265.0" y2="312.6" stroke="#F59E0B" stroke-width=".7" stroke-opacity=".22" stroke-dasharray="3 5"/>
<line x1="190" y1="258" x2="87.4" y2="265.0" stroke="#F59E0B" stroke-width=".7" stroke-opacity=".22" stroke-dasharray="3 5"/>
<line x1="210" y1="258" x2="312.6" y2="265.0" stroke="#F59E0B" stroke-width=".7" stroke-opacity=".22" stroke-dasharray="3 5"/>
<circle cx="200.0" cy="70.0" r="5" fill="#F59E0B" fill-opacity=".8"/>
<circle cx="200.0" cy="70.0" r="9" fill="none" stroke="#F59E0B" stroke-width=".75" stroke-opacity=".25"/>
<circle cx="265.0" cy="87.4" r="5" fill="#F59E0B" fill-opacity=".8"/>
<circle cx="265.0" cy="87.4" r="9" fill="none" stroke="#F59E0B" stroke-width=".75" stroke-opacity=".25"/>
<circle cx="312.6" cy="135.0" r="5" fill="#F59E0B" fill-opacity=".8"/>
<circle cx="312.6" cy="135.0" r="9" fill="none" stroke="#F59E0B" stroke-width=".75" stroke-opacity=".25"/>
<circle cx="330.0" cy="200.0" r="5" fill="#F59E0B" fill-opacity=".8"/>
<circle cx="330.0" cy="200.0" r="9" fill="none" stroke="#F59E0B" stroke-width=".75" stroke-opacity=".25"/>
<circle cx="312.6" cy="265.0" r="5" fill="#F59E0B" fill-opacity=".8"/>
<circle cx="312.6" cy="265.0" r="9" fill="none" stroke="#F59E0B" stroke-width=".75" stroke-opacity=".25"/>
<circle cx="265.0" cy="312.6" r="5" fill="#F59E0B" fill-opacity=".8"/>
<circle cx="265.0" cy="312.6" r="9" fill="none" stroke="#F59E0B" stroke-width=".75" stroke-opacity=".25"/>
<circle cx="200.0" cy="330.0" r="5" fill="#F59E0B" fill-opacity=".8"/>
<circle cx="200.0" cy="330.0" r="9" fill="none" stroke="#F59E0B" stroke-width=".75" stroke-opacity=".25"/>
<circle cx="135.0" cy="312.6" r="5" fill="#F59E0B" fill-opacity=".8"/>
<circle cx="135.0" cy="312.6" r="9" fill="none" stroke="#F59E0B" stroke-width=".75" stroke-opacity=".25"/>
<circle cx="87.4" cy="265.0" r="5" fill="#F59E0B" fill-opacity=".8"/>
<circle cx="87.4" cy="265.0" r="9" fill="none" stroke="#F59E0B" stroke-width=".75" stroke-opacity=".25"/>
<circle cx="70.0" cy="200.0" r="5" fill="#F59E0B" fill-opacity=".8"/>
<circle cx="70.0" cy="200.0" r="9" fill="none" stroke="#F59E0B" stroke-width=".75" stroke-opacity=".25"/>
<circle cx="87.4" cy="135.0" r="5" fill="#F59E0B" fill-opacity=".8"/>
<circle cx="87.4" cy="135.0" r="9" fill="none" stroke="#F59E0B" stroke-width=".75" stroke-opacity=".25"/>
<circle cx="135.0" cy="87.4" r="5" fill="#F59E0B" fill-opacity=".8"/>
<circle cx="135.0" cy="87.4" r="9" fill="none" stroke="#F59E0B" stroke-width=".75" stroke-opacity=".25"/>
<circle cx="200" cy="155" r="2.8" fill="#F59E0B" fill-opacity=".85"/>
<circle cx="183" cy="176" r="2.8" fill="#F59E0B" fill-opacity=".85"/>
<circle cx="217" cy="176" r="2.8" fill="#F59E0B" fill-opacity=".85"/>
<circle cx="160" cy="214" r="2.8" fill="#F59E0B" fill-opacity=".85"/>
<circle cx="240" cy="214" r="2.8" fill="#F59E0B" fill-opacity=".85"/>
<circle cx="190" cy="220" r="2.8" fill="#F59E0B" fill-opacity=".85"/>
<circle cx="210" cy="220" r="2.8" fill="#F59E0B" fill-opacity=".85"/>
<circle cx="190" cy="258" r="2.8" fill="#F59E0B" fill-opacity=".85"/>
<circle cx="210" cy="258" r="2.8" fill="#F59E0B" fill-opacity=".85"/>
<text fill="#E8EAF2" font-size="13.5" font-family="Barlow Condensed,Arial Narrow,sans-serif" font-weight="700" letter-spacing="4.5">
  <textPath href="#bp" startOffset="50%" text-anchor="middle">LABOUR  BY  HIRE</textPath>
</text>
<text x="200" y="277" text-anchor="middle" fill="#2196F3" font-size="10" font-family="Barlow Condensed,Arial Narrow,sans-serif" font-weight="700" letter-spacing="5" fill-opacity=".5">L  B  H</text>
</svg>